<svg xmlns="http://www.w3.org/2000/svg" viewBox="0 0 1600 360" preserveAspectRatio="xMidYMax meet"><rect width="1600" height="360" fill="none"/><ellipse cx="800" cy="330" rx="780" ry="70" fill="#9fbfae" opacity="0.05"/><ellipse cx="520" cy="345" rx="520" ry="48" fill="#a6e3a1" opacity="0.035"/><polygon points="165,360 213,360 189,323" fill="#0c1a14" opacity="0.5"/><polygon points="170,338 208,338 189,305" fill="#0c1a14" opacity="0.5"/><polygon points="176,320 202,320 189,288" fill="#0c1a14" opacity="0.5"/><rect x="185" y="350" width="8" height="10" fill="#0c1a14" opacity="0.5"/><polygon points="302,360 364,360 333,312" fill="#0c1a14" opacity="0.5"/><polygon points="309,332 357,332 333,290" fill="#0c1a14" opacity="0.5"/><polygon points="317,308 349,308 333,268" fill="#0c1a14" opacity="0.5"/><rect x="329" y="347" width="8" height="13" fill="#0c1a14" opacity="0.5"/><polygon points="480,360 548,360 514,308" fill="#0c1a14" opacity="0.5"/><polygon points="487,330 541,330 514,284" fill="#0c1a14" opacity="0.5"/><polygon points="496,304 532,304 514,260" fill="#0c1a14" opacity="0.5"/><rect x="510" y="346" width="8" height="14" fill="#0c1a14" opacity="0.5"/><polygon points="631,360 675,360 653,326" fill="#0c1a14" opacity="0.5"/><polygon points="636,340 670,340 653,311" fill="#0c1a14" opacity="0.5"/><polygon points="642,324 664,324 653,295" fill="#0c1a14" opacity="0.5"/><rect x="649" y="351" width="8" height="9" fill="#0c1a14" opacity="0.5"/><polygon points="784,360 840,360 812,318" fill="#0c1a14" opacity="0.5"/><polygon points="791,336 833,336 812,298" fill="#0c1a14" opacity="0.5"/><polygon points="798,315 826,315 812,279" fill="#0c1a14" opacity="0.5"/><rect x="808" y="349" width="8" height="11" fill="#0c1a14" opacity="0.5"/><polygon points="897,360 967,360 932,306" fill="#0c1a14" opacity="0.5"/><polygon points="904,329 960,329 932,281" fill="#0c1a14" opacity="0.5"/><polygon points="914,302 950,302 932,256" fill="#0c1a14" opacity="0.5"/><rect x="928" y="345" width="8" height="15" fill="#0c1a14" opacity="0.5"/><polygon points="1085,360 1129,360 1107,327" fill="#0c1a14" opacity="0.5"/><polygon points="1090,341 1124,341 1107,311" fill="#0c1a14" opacity="0.5"/><polygon points="1096,324 1118,324 1107,296" fill="#0c1a14" opacity="0.5"/><rect x="1103" y="351" width="8" height="9" fill="#0c1a14" opacity="0.5"/><polygon points="1202,360 1266,360 1234,312" fill="#0c1a14" opacity="0.5"/><polygon points="1209,332 1259,332 1234,289" fill="#0c1a14" opacity="0.5"/><polygon points="1218,308 1250,308 1234,267" fill="#0c1a14" opacity="0.5"/><rect x="1230" y="347" width="8" height="13" fill="#0c1a14" opacity="0.5"/><polygon points="1349,360 1421,360 1385,305" fill="#0c1a14" opacity="0.5"/><polygon points="1357,328 1413,328 1385,280" fill="#0c1a14" opacity="0.5"/><polygon points="1366,301 1404,301 1385,255" fill="#0c1a14" opacity="0.5"/><rect x="1381" y="345" width="8" height="15" fill="#0c1a14" opacity="0.5"/><polygon points="1508,360 1558,360 1533,321" fill="#0c1a14" opacity="0.5"/><polygon points="1513,338 1553,338 1533,303" fill="#0c1a14" opacity="0.5"/><polygon points="1520,318 1546,318 1533,285" fill="#0c1a14" opacity="0.5"/><rect x="1529" y="350" width="8" height="11" fill="#0c1a14" opacity="0.5"/><polygon points="186,360 310,360 248,270" fill="#030806" opacity="0.95"/><polygon points="199,308 297,308 248,229" fill="#030806" opacity="0.95"/><polygon points="216,263 280,263 248,187" fill="#030806" opacity="0.95"/><rect x="242" y="336" width="11" height="24" fill="#030806" opacity="0.95"/><polygon points="317,360 453,360 385,262" fill="#030806" opacity="0.95"/><polygon points="332,304 438,304 385,217" fill="#030806" opacity="0.95"/><polygon points="350,255 420,255 385,172" fill="#030806" opacity="0.95"/><rect x="379" y="334" width="12" height="26" fill="#030806" opacity="0.95"/><polygon points="421,360 585,360 503,242" fill="#030806" opacity="0.95"/><polygon points="439,292 567,292 503,187" fill="#030806" opacity="0.95"/><polygon points="461,233 545,233 503,133" fill="#030806" opacity="0.95"/><rect x="496" y="328" width="15" height="32" fill="#030806" opacity="0.95"/><polygon points="539,360 707,360 623,238" fill="#030806" opacity="0.95"/><polygon points="557,290 689,290 623,182" fill="#030806" opacity="0.95"/><polygon points="579,229 667,229 623,126" fill="#030806" opacity="0.95"/><rect x="615" y="327" width="15" height="33" fill="#030806" opacity="0.95"/><polygon points="675,360 799,360 737,270" fill="#030806" opacity="0.95"/><polygon points="688,308 786,308 737,229" fill="#030806" opacity="0.95"/><polygon points="705,263 769,263 737,187" fill="#030806" opacity="0.95"/><rect x="731" y="336" width="11" height="24" fill="#030806" opacity="0.95"/><polygon points="786,360 918,360 852,265" fill="#030806" opacity="0.95"/><polygon points="801,305 903,305 852,222" fill="#030806" opacity="0.95"/><polygon points="818,258 886,258 852,178" fill="#030806" opacity="0.95"/><rect x="846" y="335" width="12" height="25" fill="#030806" opacity="0.95"/><polygon points="907,360 1057,360 982,252" fill="#030806" opacity="0.95"/><polygon points="924,298 1040,298 982,202" fill="#030806" opacity="0.95"/><polygon points="943,244 1021,244 982,152" fill="#030806" opacity="0.95"/><rect x="975" y="331" width="13" height="29" fill="#030806" opacity="0.95"/><polygon points="1009,360 1179,360 1094,237" fill="#030806" opacity="0.95"/><polygon points="1027,289 1161,289 1094,180" fill="#030806" opacity="0.95"/><polygon points="1050,227 1138,227 1094,123" fill="#030806" opacity="0.95"/><rect x="1086" y="327" width="15" height="33" fill="#030806" opacity="0.95"/><polygon points="1149,360 1269,360 1209,273" fill="#030806" opacity="0.95"/><polygon points="1162,310 1256,310 1209,232" fill="#030806" opacity="0.95"/><polygon points="1178,266 1240,266 1209,192" fill="#030806" opacity="0.95"/><rect x="1204" y="336" width="11" height="24" fill="#030806" opacity="0.95"/><polygon points="1277,360 1419,360 1348,257" fill="#030806" opacity="0.95"/><polygon points="1292,301 1404,301 1348,210" fill="#030806" opacity="0.95"/><polygon points="1311,249 1385,249 1348,162" fill="#030806" opacity="0.95"/><rect x="1342" y="332" width="13" height="28" fill="#030806" opacity="0.95"/><polygon points="1393,360 1555,360 1474,243" fill="#030806" opacity="0.95"/><polygon points="1411,292 1537,292 1474,189" fill="#030806" opacity="0.95"/><polygon points="1432,234 1516,234 1474,135" fill="#030806" opacity="0.95"/><rect x="1467" y="328" width="15" height="32" fill="#030806" opacity="0.95"/></svg>